<?xml version="1.0" encoding="utf-8" standalone="no"?>
<!DOCTYPE svg PUBLIC "-//W3C//DTD SVG 1.1//EN"
  "http://www.w3.org/Graphics/SVG/1.1/DTD/svg11.dtd">
<svg xmlns:xlink="http://www.w3.org/1999/xlink" width="1140.399062pt" height="852.1625pt" viewBox="0 0 1140.399062 852.1625" xmlns="http://www.w3.org/2000/svg" version="1.1">
 <metadata>
  <rdf:RDF xmlns:dc="http://purl.org/dc/elements/1.1/" xmlns:cc="http://creativecommons.org/ns#" xmlns:rdf="http://www.w3.org/1999/02/22-rdf-syntax-ns#">
   <cc:Work>
    <dc:type rdf:resource="http://purl.org/dc/dcmitype/StillImage"/>
    <dc:date>2025-06-17T16:59:23.562189</dc:date>
    <dc:format>image/svg+xml</dc:format>
    <dc:creator>
     <cc:Agent>
      <dc:title>Matplotlib v3.10.3, https://matplotlib.org/</dc:title>
     </cc:Agent>
    </dc:creator>
   </cc:Work>
  </rdf:RDF>
 </metadata>
 <defs>
  <style type="text/css">*{stroke-linejoin: round; stroke-linecap: butt}</style>
 </defs>
 <g id="figure_1">
  <g id="patch_1">
   <path d="M 0 852.1625 
L 1140.399062 852.1625 
L 1140.399062 0 
L 0 0 
z
" style="fill: #ffffff"/>
  </g>
  <g id="axes_1">
   <g id="patch_2">
    <path d="M 44.049063 384.935625 
L 563.679062 384.935625 
L 563.679062 21.935625 
L 44.049063 21.935625 
z
" style="fill: #ffffff"/>
   </g>
   <g id="matplotlib.axis_1">
    <g id="xtick_1">
     <g id="text_1">
      <!-- Hospital1 -->
      <g style="fill: #262626" transform="translate(151.028438 402.341875) scale(0.11 -0.11)">
       <defs>
        <path id="ArialMT-48" d="M 513 0 
L 513 4581 
L 1119 4581 
L 1119 2700 
L 3500 2700 
L 3500 4581 
L 4106 4581 
L 4106 0 
L 3500 0 
L 3500 2159 
L 1119 2159 
L 1119 0 
L 513 0 
z
" transform="scale(0.015625)"/>
        <path id="ArialMT-6f" d="M 213 1659 
Q 213 2581 725 3025 
Q 1153 3394 1769 3394 
Q 2453 3394 2887 2945 
Q 3322 2497 3322 1706 
Q 3322 1066 3130 698 
Q 2938 331 2570 128 
Q 2203 -75 1769 -75 
Q 1072 -75 642 372 
Q 213 819 213 1659 
z
M 791 1659 
Q 791 1022 1069 705 
Q 1347 388 1769 388 
Q 2188 388 2466 706 
Q 2744 1025 2744 1678 
Q 2744 2294 2464 2611 
Q 2184 2928 1769 2928 
Q 1347 2928 1069 2612 
Q 791 2297 791 1659 
z
" transform="scale(0.015625)"/>
        <path id="ArialMT-73" d="M 197 991 
L 753 1078 
Q 800 744 1014 566 
Q 1228 388 1613 388 
Q 2000 388 2187 545 
Q 2375 703 2375 916 
Q 2375 1106 2209 1216 
Q 2094 1291 1634 1406 
Q 1016 1563 777 1677 
Q 538 1791 414 1992 
Q 291 2194 291 2438 
Q 291 2659 392 2848 
Q 494 3038 669 3163 
Q 800 3259 1026 3326 
Q 1253 3394 1513 3394 
Q 1903 3394 2198 3281 
Q 2494 3169 2634 2976 
Q 2775 2784 2828 2463 
L 2278 2388 
Q 2241 2644 2061 2787 
Q 1881 2931 1553 2931 
Q 1166 2931 1000 2803 
Q 834 2675 834 2503 
Q 834 2394 903 2306 
Q 972 2216 1119 2156 
Q 1203 2125 1616 2013 
Q 2213 1853 2448 1751 
Q 2684 1650 2818 1456 
Q 2953 1263 2953 975 
Q 2953 694 2789 445 
Q 2625 197 2315 61 
Q 2006 -75 1616 -75 
Q 969 -75 630 194 
Q 291 463 197 991 
z
" transform="scale(0.015625)"/>
        <path id="ArialMT-70" d="M 422 -1272 
L 422 3319 
L 934 3319 
L 934 2888 
Q 1116 3141 1344 3267 
Q 1572 3394 1897 3394 
Q 2322 3394 2647 3175 
Q 2972 2956 3137 2557 
Q 3303 2159 3303 1684 
Q 3303 1175 3120 767 
Q 2938 359 2589 142 
Q 2241 -75 1856 -75 
Q 1575 -75 1351 44 
Q 1128 163 984 344 
L 984 -1272 
L 422 -1272 
z
M 931 1641 
Q 931 1000 1190 694 
Q 1450 388 1819 388 
Q 2194 388 2461 705 
Q 2728 1022 2728 1688 
Q 2728 2322 2467 2637 
Q 2206 2953 1844 2953 
Q 1484 2953 1207 2617 
Q 931 2281 931 1641 
z
" transform="scale(0.015625)"/>
        <path id="ArialMT-69" d="M 425 3934 
L 425 4581 
L 988 4581 
L 988 3934 
L 425 3934 
z
M 425 0 
L 425 3319 
L 988 3319 
L 988 0 
L 425 0 
z
" transform="scale(0.015625)"/>
        <path id="ArialMT-74" d="M 1650 503 
L 1731 6 
Q 1494 -44 1306 -44 
Q 1000 -44 831 53 
Q 663 150 594 308 
Q 525 466 525 972 
L 525 2881 
L 113 2881 
L 113 3319 
L 525 3319 
L 525 4141 
L 1084 4478 
L 1084 3319 
L 1650 3319 
L 1650 2881 
L 1084 2881 
L 1084 941 
Q 1084 700 1114 631 
Q 1144 563 1211 522 
Q 1278 481 1403 481 
Q 1497 481 1650 503 
z
" transform="scale(0.015625)"/>
        <path id="ArialMT-61" d="M 2588 409 
Q 2275 144 1986 34 
Q 1697 -75 1366 -75 
Q 819 -75 525 192 
Q 231 459 231 875 
Q 231 1119 342 1320 
Q 453 1522 633 1644 
Q 813 1766 1038 1828 
Q 1203 1872 1538 1913 
Q 2219 1994 2541 2106 
Q 2544 2222 2544 2253 
Q 2544 2597 2384 2738 
Q 2169 2928 1744 2928 
Q 1347 2928 1158 2789 
Q 969 2650 878 2297 
L 328 2372 
Q 403 2725 575 2942 
Q 747 3159 1072 3276 
Q 1397 3394 1825 3394 
Q 2250 3394 2515 3294 
Q 2781 3194 2906 3042 
Q 3031 2891 3081 2659 
Q 3109 2516 3109 2141 
L 3109 1391 
Q 3109 606 3145 398 
Q 3181 191 3288 0 
L 2700 0 
Q 2613 175 2588 409 
z
M 2541 1666 
Q 2234 1541 1622 1453 
Q 1275 1403 1131 1340 
Q 988 1278 909 1158 
Q 831 1038 831 891 
Q 831 666 1001 516 
Q 1172 366 1500 366 
Q 1825 366 2078 508 
Q 2331 650 2450 897 
Q 2541 1088 2541 1459 
L 2541 1666 
z
" transform="scale(0.015625)"/>
        <path id="ArialMT-6c" d="M 409 0 
L 409 4581 
L 972 4581 
L 972 0 
L 409 0 
z
" transform="scale(0.015625)"/>
        <path id="ArialMT-31" d="M 2384 0 
L 1822 0 
L 1822 3584 
Q 1619 3391 1289 3197 
Q 959 3003 697 2906 
L 697 3450 
Q 1169 3672 1522 3987 
Q 1875 4303 2022 4600 
L 2384 4600 
L 2384 0 
z
" transform="scale(0.015625)"/>
       </defs>
       <use xlink:href="#ArialMT-48"/>
       <use xlink:href="#ArialMT-6f" transform="translate(72.216797 0)"/>
       <use xlink:href="#ArialMT-73" transform="translate(127.832031 0)"/>
       <use xlink:href="#ArialMT-70" transform="translate(177.832031 0)"/>
       <use xlink:href="#ArialMT-69" transform="translate(233.447266 0)"/>
       <use xlink:href="#ArialMT-74" transform="translate(255.664062 0)"/>
       <use xlink:href="#ArialMT-61" transform="translate(283.447266 0)"/>
       <use xlink:href="#ArialMT-6c" transform="translate(339.0625 0)"/>
       <use xlink:href="#ArialMT-31" transform="translate(361.279297 0)"/>
      </g>
     </g>
    </g>
    <g id="xtick_2">
     <g id="text_2">
      <!-- Hospital2 -->
      <g style="fill: #262626" transform="translate(410.843437 402.341875) scale(0.11 -0.11)">
       <defs>
        <path id="ArialMT-32" d="M 3222 541 
L 3222 0 
L 194 0 
Q 188 203 259 391 
Q 375 700 629 1000 
Q 884 1300 1366 1694 
Q 2113 2306 2375 2664 
Q 2638 3022 2638 3341 
Q 2638 3675 2398 3904 
Q 2159 4134 1775 4134 
Q 1369 4134 1125 3890 
Q 881 3647 878 3216 
L 300 3275 
Q 359 3922 746 4261 
Q 1134 4600 1788 4600 
Q 2447 4600 2831 4234 
Q 3216 3869 3216 3328 
Q 3216 3053 3103 2787 
Q 2991 2522 2730 2228 
Q 2469 1934 1863 1422 
Q 1356 997 1212 845 
Q 1069 694 975 541 
L 3222 541 
z
" transform="scale(0.015625)"/>
       </defs>
       <use xlink:href="#ArialMT-48"/>
       <use xlink:href="#ArialMT-6f" transform="translate(72.216797 0)"/>
       <use xlink:href="#ArialMT-73" transform="translate(127.832031 0)"/>
       <use xlink:href="#ArialMT-70" transform="translate(177.832031 0)"/>
       <use xlink:href="#ArialMT-69" transform="translate(233.447266 0)"/>
       <use xlink:href="#ArialMT-74" transform="translate(255.664062 0)"/>
       <use xlink:href="#ArialMT-61" transform="translate(283.447266 0)"/>
       <use xlink:href="#ArialMT-6c" transform="translate(339.0625 0)"/>
       <use xlink:href="#ArialMT-32" transform="translate(361.279297 0)"/>
      </g>
     </g>
    </g>
    <g id="text_3">
     <!-- Hospital -->
     <g style="fill: #262626" transform="translate(282.188125 417.1175) scale(0.12 -0.12)">
      <use xlink:href="#ArialMT-48"/>
      <use xlink:href="#ArialMT-6f" transform="translate(72.216797 0)"/>
      <use xlink:href="#ArialMT-73" transform="translate(127.832031 0)"/>
      <use xlink:href="#ArialMT-70" transform="translate(177.832031 0)"/>
      <use xlink:href="#ArialMT-69" transform="translate(233.447266 0)"/>
      <use xlink:href="#ArialMT-74" transform="translate(255.664062 0)"/>
      <use xlink:href="#ArialMT-61" transform="translate(283.447266 0)"/>
      <use xlink:href="#ArialMT-6c" transform="translate(339.0625 0)"/>
     </g>
    </g>
   </g>
   <g id="matplotlib.axis_2">
    <g id="ytick_1">
     <g id="line2d_1">
      <path d="M 44.049063 384.935625 
L 563.679062 384.935625 
" clip-path="url(#p11fd8f5db1)" style="fill: none; stroke: #cccccc; stroke-linecap: round"/>
     </g>
     <g id="text_4">
      <!-- 0 -->
      <g style="fill: #262626" transform="translate(28.432031 388.872422) scale(0.11 -0.11)">
       <defs>
        <path id="ArialMT-30" d="M 266 2259 
Q 266 3072 433 3567 
Q 600 4063 929 4331 
Q 1259 4600 1759 4600 
Q 2128 4600 2406 4451 
Q 2684 4303 2865 4023 
Q 3047 3744 3150 3342 
Q 3253 2941 3253 2259 
Q 3253 1453 3087 958 
Q 2922 463 2592 192 
Q 2263 -78 1759 -78 
Q 1097 -78 719 397 
Q 266 969 266 2259 
z
M 844 2259 
Q 844 1131 1108 757 
Q 1372 384 1759 384 
Q 2147 384 2411 759 
Q 2675 1134 2675 2259 
Q 2675 3391 2411 3762 
Q 2147 4134 1753 4134 
Q 1366 4134 1134 3806 
Q 844 3388 844 2259 
z
" transform="scale(0.015625)"/>
       </defs>
       <use xlink:href="#ArialMT-30"/>
      </g>
     </g>
    </g>
    <g id="ytick_2">
     <g id="line2d_2">
      <path d="M 44.049063 331.374257 
L 563.679062 331.374257 
" clip-path="url(#p11fd8f5db1)" style="fill: none; stroke: #cccccc; stroke-linecap: round"/>
     </g>
     <g id="text_5">
      <!-- 10 -->
      <g style="fill: #262626" transform="translate(22.315 335.311054) scale(0.11 -0.11)">
       <use xlink:href="#ArialMT-31"/>
       <use xlink:href="#ArialMT-30" transform="translate(55.615234 0)"/>
      </g>
     </g>
    </g>
    <g id="ytick_3">
     <g id="line2d_3">
      <path d="M 44.049063 277.812889 
L 563.679062 277.812889 
" clip-path="url(#p11fd8f5db1)" style="fill: none; stroke: #cccccc; stroke-linecap: round"/>
     </g>
     <g id="text_6">
      <!-- 20 -->
      <g style="fill: #262626" transform="translate(22.315 281.749685) scale(0.11 -0.11)">
       <use xlink:href="#ArialMT-32"/>
       <use xlink:href="#ArialMT-30" transform="translate(55.615234 0)"/>
      </g>
     </g>
    </g>
    <g id="ytick_4">
     <g id="line2d_4">
      <path d="M 44.049063 224.25152 
L 563.679062 224.25152 
" clip-path="url(#p11fd8f5db1)" style="fill: none; stroke: #cccccc; stroke-linecap: round"/>
     </g>
     <g id="text_7">
      <!-- 30 -->
      <g style="fill: #262626" transform="translate(22.315 228.188317) scale(0.11 -0.11)">
       <defs>
        <path id="ArialMT-33" d="M 269 1209 
L 831 1284 
Q 928 806 1161 595 
Q 1394 384 1728 384 
Q 2125 384 2398 659 
Q 2672 934 2672 1341 
Q 2672 1728 2419 1979 
Q 2166 2231 1775 2231 
Q 1616 2231 1378 2169 
L 1441 2663 
Q 1497 2656 1531 2656 
Q 1891 2656 2178 2843 
Q 2466 3031 2466 3422 
Q 2466 3731 2256 3934 
Q 2047 4138 1716 4138 
Q 1388 4138 1169 3931 
Q 950 3725 888 3313 
L 325 3413 
Q 428 3978 793 4289 
Q 1159 4600 1703 4600 
Q 2078 4600 2393 4439 
Q 2709 4278 2876 4000 
Q 3044 3722 3044 3409 
Q 3044 3113 2884 2869 
Q 2725 2625 2413 2481 
Q 2819 2388 3044 2092 
Q 3269 1797 3269 1353 
Q 3269 753 2831 336 
Q 2394 -81 1725 -81 
Q 1122 -81 723 278 
Q 325 638 269 1209 
z
" transform="scale(0.015625)"/>
       </defs>
       <use xlink:href="#ArialMT-33"/>
       <use xlink:href="#ArialMT-30" transform="translate(55.615234 0)"/>
      </g>
     </g>
    </g>
    <g id="ytick_5">
     <g id="line2d_5">
      <path d="M 44.049063 170.690152 
L 563.679062 170.690152 
" clip-path="url(#p11fd8f5db1)" style="fill: none; stroke: #cccccc; stroke-linecap: round"/>
     </g>
     <g id="text_8">
      <!-- 40 -->
      <g style="fill: #262626" transform="translate(22.315 174.626949) scale(0.11 -0.11)">
       <defs>
        <path id="ArialMT-34" d="M 2069 0 
L 2069 1097 
L 81 1097 
L 81 1613 
L 2172 4581 
L 2631 4581 
L 2631 1613 
L 3250 1613 
L 3250 1097 
L 2631 1097 
L 2631 0 
L 2069 0 
z
M 2069 1613 
L 2069 3678 
L 634 1613 
L 2069 1613 
z
" transform="scale(0.015625)"/>
       </defs>
       <use xlink:href="#ArialMT-34"/>
       <use xlink:href="#ArialMT-30" transform="translate(55.615234 0)"/>
      </g>
     </g>
    </g>
    <g id="ytick_6">
     <g id="line2d_6">
      <path d="M 44.049063 117.128784 
L 563.679062 117.128784 
" clip-path="url(#p11fd8f5db1)" style="fill: none; stroke: #cccccc; stroke-linecap: round"/>
     </g>
     <g id="text_9">
      <!-- 50 -->
      <g style="fill: #262626" transform="translate(22.315 121.065581) scale(0.11 -0.11)">
       <defs>
        <path id="ArialMT-35" d="M 266 1200 
L 856 1250 
Q 922 819 1161 601 
Q 1400 384 1738 384 
Q 2144 384 2425 690 
Q 2706 997 2706 1503 
Q 2706 1984 2436 2262 
Q 2166 2541 1728 2541 
Q 1456 2541 1237 2417 
Q 1019 2294 894 2097 
L 366 2166 
L 809 4519 
L 3088 4519 
L 3088 3981 
L 1259 3981 
L 1013 2750 
Q 1425 3038 1878 3038 
Q 2478 3038 2890 2622 
Q 3303 2206 3303 1553 
Q 3303 931 2941 478 
Q 2500 -78 1738 -78 
Q 1113 -78 717 272 
Q 322 622 266 1200 
z
" transform="scale(0.015625)"/>
       </defs>
       <use xlink:href="#ArialMT-35"/>
       <use xlink:href="#ArialMT-30" transform="translate(55.615234 0)"/>
      </g>
     </g>
    </g>
    <g id="ytick_7">
     <g id="line2d_7">
      <path d="M 44.049063 63.567416 
L 563.679062 63.567416 
" clip-path="url(#p11fd8f5db1)" style="fill: none; stroke: #cccccc; stroke-linecap: round"/>
     </g>
     <g id="text_10">
      <!-- 60 -->
      <g style="fill: #262626" transform="translate(22.315 67.504213) scale(0.11 -0.11)">
       <defs>
        <path id="ArialMT-36" d="M 3184 3459 
L 2625 3416 
Q 2550 3747 2413 3897 
Q 2184 4138 1850 4138 
Q 1581 4138 1378 3988 
Q 1113 3794 959 3422 
Q 806 3050 800 2363 
Q 1003 2672 1297 2822 
Q 1591 2972 1913 2972 
Q 2475 2972 2870 2558 
Q 3266 2144 3266 1488 
Q 3266 1056 3080 686 
Q 2894 316 2569 119 
Q 2244 -78 1831 -78 
Q 1128 -78 684 439 
Q 241 956 241 2144 
Q 241 3472 731 4075 
Q 1159 4600 1884 4600 
Q 2425 4600 2770 4297 
Q 3116 3994 3184 3459 
z
M 888 1484 
Q 888 1194 1011 928 
Q 1134 663 1356 523 
Q 1578 384 1822 384 
Q 2178 384 2434 671 
Q 2691 959 2691 1453 
Q 2691 1928 2437 2201 
Q 2184 2475 1800 2475 
Q 1419 2475 1153 2201 
Q 888 1928 888 1484 
z
" transform="scale(0.015625)"/>
       </defs>
       <use xlink:href="#ArialMT-36"/>
       <use xlink:href="#ArialMT-30" transform="translate(55.615234 0)"/>
      </g>
     </g>
    </g>
    <g id="text_11">
     <!-- Accuracy -->
     <g style="fill: #262626" transform="translate(15.789375 228.10875) rotate(-90) scale(0.12 -0.12)">
      <defs>
       <path id="ArialMT-41" d="M -9 0 
L 1750 4581 
L 2403 4581 
L 4278 0 
L 3588 0 
L 3053 1388 
L 1138 1388 
L 634 0 
L -9 0 
z
M 1313 1881 
L 2866 1881 
L 2388 3150 
Q 2169 3728 2063 4100 
Q 1975 3659 1816 3225 
L 1313 1881 
z
" transform="scale(0.015625)"/>
       <path id="ArialMT-63" d="M 2588 1216 
L 3141 1144 
Q 3050 572 2676 248 
Q 2303 -75 1759 -75 
Q 1078 -75 664 370 
Q 250 816 250 1647 
Q 250 2184 428 2587 
Q 606 2991 970 3192 
Q 1334 3394 1763 3394 
Q 2303 3394 2647 3120 
Q 2991 2847 3088 2344 
L 2541 2259 
Q 2463 2594 2264 2762 
Q 2066 2931 1784 2931 
Q 1359 2931 1093 2626 
Q 828 2322 828 1663 
Q 828 994 1084 691 
Q 1341 388 1753 388 
Q 2084 388 2306 591 
Q 2528 794 2588 1216 
z
" transform="scale(0.015625)"/>
       <path id="ArialMT-75" d="M 2597 0 
L 2597 488 
Q 2209 -75 1544 -75 
Q 1250 -75 995 37 
Q 741 150 617 320 
Q 494 491 444 738 
Q 409 903 409 1263 
L 409 3319 
L 972 3319 
L 972 1478 
Q 972 1038 1006 884 
Q 1059 663 1231 536 
Q 1403 409 1656 409 
Q 1909 409 2131 539 
Q 2353 669 2445 892 
Q 2538 1116 2538 1541 
L 2538 3319 
L 3100 3319 
L 3100 0 
L 2597 0 
z
" transform="scale(0.015625)"/>
       <path id="ArialMT-72" d="M 416 0 
L 416 3319 
L 922 3319 
L 922 2816 
Q 1116 3169 1280 3281 
Q 1444 3394 1641 3394 
Q 1925 3394 2219 3213 
L 2025 2691 
Q 1819 2813 1613 2813 
Q 1428 2813 1281 2702 
Q 1134 2591 1072 2394 
Q 978 2094 978 1738 
L 978 0 
L 416 0 
z
" transform="scale(0.015625)"/>
       <path id="ArialMT-79" d="M 397 -1278 
L 334 -750 
Q 519 -800 656 -800 
Q 844 -800 956 -737 
Q 1069 -675 1141 -563 
Q 1194 -478 1313 -144 
Q 1328 -97 1363 -6 
L 103 3319 
L 709 3319 
L 1400 1397 
Q 1534 1031 1641 628 
Q 1738 1016 1872 1384 
L 2581 3319 
L 3144 3319 
L 1881 -56 
Q 1678 -603 1566 -809 
Q 1416 -1088 1222 -1217 
Q 1028 -1347 759 -1347 
Q 597 -1347 397 -1278 
z
" transform="scale(0.015625)"/>
      </defs>
      <use xlink:href="#ArialMT-41"/>
      <use xlink:href="#ArialMT-63" transform="translate(66.699219 0)"/>
      <use xlink:href="#ArialMT-63" transform="translate(116.699219 0)"/>
      <use xlink:href="#ArialMT-75" transform="translate(166.699219 0)"/>
      <use xlink:href="#ArialMT-72" transform="translate(222.314453 0)"/>
      <use xlink:href="#ArialMT-61" transform="translate(255.615234 0)"/>
      <use xlink:href="#ArialMT-63" transform="translate(311.230469 0)"/>
      <use xlink:href="#ArialMT-79" transform="translate(361.230469 0)"/>
     </g>
    </g>
   </g>
   <g id="patch_3">
    <path d="M 70.030563 384.935625 
L 173.956563 384.935625 
L 173.956563 39.221339 
L 70.030563 39.221339 
z
" clip-path="url(#p11fd8f5db1)" style="fill: #3274a1; stroke: #ffffff; stroke-linejoin: miter"/>
   </g>
   <g id="patch_4">
    <path d="M 329.845563 384.935625 
L 433.771563 384.935625 
L 433.771563 91.565404 
L 329.845563 91.565404 
z
" clip-path="url(#p11fd8f5db1)" style="fill: #3274a1; stroke: #ffffff; stroke-linejoin: miter"/>
   </g>
   <g id="patch_5">
    <path d="M 173.956563 384.935625 
L 277.882563 384.935625 
L 277.882563 100.390856 
L 173.956563 100.390856 
z
" clip-path="url(#p11fd8f5db1)" style="fill: #e1812c; stroke: #ffffff; stroke-linejoin: miter"/>
   </g>
   <g id="patch_6">
    <path d="M 433.771563 384.935625 
L 537.697563 384.935625 
L 537.697563 144.51812 
L 433.771563 144.51812 
z
" clip-path="url(#p11fd8f5db1)" style="fill: #e1812c; stroke: #ffffff; stroke-linejoin: miter"/>
   </g>
   <g id="patch_7">
    <path d="M 173.956563 384.935625 
L 173.956563 384.935625 
L 173.956563 384.935625 
L 173.956563 384.935625 
z
" clip-path="url(#p11fd8f5db1)" style="fill: #3274a1; stroke: #ffffff; stroke-linejoin: miter"/>
   </g>
   <g id="patch_8">
    <path d="M 173.956563 384.935625 
L 173.956563 384.935625 
L 173.956563 384.935625 
L 173.956563 384.935625 
z
" clip-path="url(#p11fd8f5db1)" style="fill: #e1812c; stroke: #ffffff; stroke-linejoin: miter"/>
   </g>
   <g id="line2d_8">
    <path clip-path="url(#p11fd8f5db1)" style="fill: none; stroke: #424242; stroke-width: 2.25; stroke-linecap: round"/>
   </g>
   <g id="line2d_9">
    <path clip-path="url(#p11fd8f5db1)" style="fill: none; stroke: #424242; stroke-width: 2.25; stroke-linecap: round"/>
   </g>
   <g id="line2d_10">
    <path clip-path="url(#p11fd8f5db1)" style="fill: none; stroke: #424242; stroke-width: 2.25; stroke-linecap: round"/>
   </g>
   <g id="line2d_11">
    <path clip-path="url(#p11fd8f5db1)" style="fill: none; stroke: #424242; stroke-width: 2.25; stroke-linecap: round"/>
   </g>
   <g id="patch_9">
    <path d="M 44.049063 384.935625 
L 44.049063 21.935625 
" style="fill: none; stroke: #cccccc; stroke-width: 1.25; stroke-linejoin: miter; stroke-linecap: square"/>
   </g>
   <g id="patch_10">
    <path d="M 563.679062 384.935625 
L 563.679062 21.935625 
" style="fill: none; stroke: #cccccc; stroke-width: 1.25; stroke-linejoin: miter; stroke-linecap: square"/>
   </g>
   <g id="patch_11">
    <path d="M 44.049063 384.935625 
L 563.679062 384.935625 
" style="fill: none; stroke: #cccccc; stroke-width: 1.25; stroke-linejoin: miter; stroke-linecap: square"/>
   </g>
   <g id="patch_12">
    <path d="M 44.049063 21.935625 
L 563.679062 21.935625 
" style="fill: none; stroke: #cccccc; stroke-width: 1.25; stroke-linejoin: miter; stroke-linecap: square"/>
   </g>
   <g id="text_12">
    <!-- Average Accuracy: Image Input vs No Image -->
    <g style="fill: #262626" transform="translate(185.249687 15.935625) scale(0.12 -0.12)">
     <defs>
      <path id="ArialMT-76" d="M 1344 0 
L 81 3319 
L 675 3319 
L 1388 1331 
Q 1503 1009 1600 663 
Q 1675 925 1809 1294 
L 2547 3319 
L 3125 3319 
L 1869 0 
L 1344 0 
z
" transform="scale(0.015625)"/>
      <path id="ArialMT-65" d="M 2694 1069 
L 3275 997 
Q 3138 488 2766 206 
Q 2394 -75 1816 -75 
Q 1088 -75 661 373 
Q 234 822 234 1631 
Q 234 2469 665 2931 
Q 1097 3394 1784 3394 
Q 2450 3394 2872 2941 
Q 3294 2488 3294 1666 
Q 3294 1616 3291 1516 
L 816 1516 
Q 847 969 1125 678 
Q 1403 388 1819 388 
Q 2128 388 2347 550 
Q 2566 713 2694 1069 
z
M 847 1978 
L 2700 1978 
Q 2663 2397 2488 2606 
Q 2219 2931 1791 2931 
Q 1403 2931 1139 2672 
Q 875 2413 847 1978 
z
" transform="scale(0.015625)"/>
      <path id="ArialMT-67" d="M 319 -275 
L 866 -356 
Q 900 -609 1056 -725 
Q 1266 -881 1628 -881 
Q 2019 -881 2231 -725 
Q 2444 -569 2519 -288 
Q 2563 -116 2559 434 
Q 2191 0 1641 0 
Q 956 0 581 494 
Q 206 988 206 1678 
Q 206 2153 378 2554 
Q 550 2956 876 3175 
Q 1203 3394 1644 3394 
Q 2231 3394 2613 2919 
L 2613 3319 
L 3131 3319 
L 3131 450 
Q 3131 -325 2973 -648 
Q 2816 -972 2473 -1159 
Q 2131 -1347 1631 -1347 
Q 1038 -1347 672 -1080 
Q 306 -813 319 -275 
z
M 784 1719 
Q 784 1066 1043 766 
Q 1303 466 1694 466 
Q 2081 466 2343 764 
Q 2606 1063 2606 1700 
Q 2606 2309 2336 2618 
Q 2066 2928 1684 2928 
Q 1309 2928 1046 2623 
Q 784 2319 784 1719 
z
" transform="scale(0.015625)"/>
      <path id="ArialMT-20" transform="scale(0.015625)"/>
      <path id="ArialMT-3a" d="M 578 2678 
L 578 3319 
L 1219 3319 
L 1219 2678 
L 578 2678 
z
M 578 0 
L 578 641 
L 1219 641 
L 1219 0 
L 578 0 
z
" transform="scale(0.015625)"/>
      <path id="ArialMT-49" d="M 597 0 
L 597 4581 
L 1203 4581 
L 1203 0 
L 597 0 
z
" transform="scale(0.015625)"/>
      <path id="ArialMT-6d" d="M 422 0 
L 422 3319 
L 925 3319 
L 925 2853 
Q 1081 3097 1340 3245 
Q 1600 3394 1931 3394 
Q 2300 3394 2536 3241 
Q 2772 3088 2869 2813 
Q 3263 3394 3894 3394 
Q 4388 3394 4653 3120 
Q 4919 2847 4919 2278 
L 4919 0 
L 4359 0 
L 4359 2091 
Q 4359 2428 4304 2576 
Q 4250 2725 4106 2815 
Q 3963 2906 3769 2906 
Q 3419 2906 3187 2673 
Q 2956 2441 2956 1928 
L 2956 0 
L 2394 0 
L 2394 2156 
Q 2394 2531 2256 2718 
Q 2119 2906 1806 2906 
Q 1569 2906 1367 2781 
Q 1166 2656 1075 2415 
Q 984 2175 984 1722 
L 984 0 
L 422 0 
z
" transform="scale(0.015625)"/>
      <path id="ArialMT-6e" d="M 422 0 
L 422 3319 
L 928 3319 
L 928 2847 
Q 1294 3394 1984 3394 
Q 2284 3394 2536 3286 
Q 2788 3178 2913 3003 
Q 3038 2828 3088 2588 
Q 3119 2431 3119 2041 
L 3119 0 
L 2556 0 
L 2556 2019 
Q 2556 2363 2490 2533 
Q 2425 2703 2258 2804 
Q 2091 2906 1866 2906 
Q 1506 2906 1245 2678 
Q 984 2450 984 1813 
L 984 0 
L 422 0 
z
" transform="scale(0.015625)"/>
      <path id="ArialMT-4e" d="M 488 0 
L 488 4581 
L 1109 4581 
L 3516 984 
L 3516 4581 
L 4097 4581 
L 4097 0 
L 3475 0 
L 1069 3600 
L 1069 0 
L 488 0 
z
" transform="scale(0.015625)"/>
     </defs>
     <use xlink:href="#ArialMT-41"/>
     <use xlink:href="#ArialMT-76" transform="translate(64.949219 0)"/>
     <use xlink:href="#ArialMT-65" transform="translate(114.949219 0)"/>
     <use xlink:href="#ArialMT-72" transform="translate(170.564453 0)"/>
     <use xlink:href="#ArialMT-61" transform="translate(203.865234 0)"/>
     <use xlink:href="#ArialMT-67" transform="translate(259.480469 0)"/>
     <use xlink:href="#ArialMT-65" transform="translate(315.095703 0)"/>
     <use xlink:href="#ArialMT-20" transform="translate(370.710938 0)"/>
     <use xlink:href="#ArialMT-41" transform="translate(392.994141 0)"/>
     <use xlink:href="#ArialMT-63" transform="translate(459.693359 0)"/>
     <use xlink:href="#ArialMT-63" transform="translate(509.693359 0)"/>
     <use xlink:href="#ArialMT-75" transform="translate(559.693359 0)"/>
     <use xlink:href="#ArialMT-72" transform="translate(615.308594 0)"/>
     <use xlink:href="#ArialMT-61" transform="translate(648.609375 0)"/>
     <use xlink:href="#ArialMT-63" transform="translate(704.224609 0)"/>
     <use xlink:href="#ArialMT-79" transform="translate(754.224609 0)"/>
     <use xlink:href="#ArialMT-3a" transform="translate(804.224609 0)"/>
     <use xlink:href="#ArialMT-20" transform="translate(832.007812 0)"/>
     <use xlink:href="#ArialMT-49" transform="translate(859.791016 0)"/>
     <use xlink:href="#ArialMT-6d" transform="translate(887.574219 0)"/>
     <use xlink:href="#ArialMT-61" transform="translate(970.875 0)"/>
     <use xlink:href="#ArialMT-67" transform="translate(1026.490234 0)"/>
     <use xlink:href="#ArialMT-65" transform="translate(1082.105469 0)"/>
     <use xlink:href="#ArialMT-20" transform="translate(1137.720703 0)"/>
     <use xlink:href="#ArialMT-49" transform="translate(1165.503906 0)"/>
     <use xlink:href="#ArialMT-6e" transform="translate(1193.287109 0)"/>
     <use xlink:href="#ArialMT-70" transform="translate(1248.902344 0)"/>
     <use xlink:href="#ArialMT-75" transform="translate(1304.517578 0)"/>
     <use xlink:href="#ArialMT-74" transform="translate(1360.132812 0)"/>
     <use xlink:href="#ArialMT-20" transform="translate(1387.916016 0)"/>
     <use xlink:href="#ArialMT-76" transform="translate(1415.699219 0)"/>
     <use xlink:href="#ArialMT-73" transform="translate(1465.699219 0)"/>
     <use xlink:href="#ArialMT-20" transform="translate(1515.699219 0)"/>
     <use xlink:href="#ArialMT-4e" transform="translate(1543.482422 0)"/>
     <use xlink:href="#ArialMT-6f" transform="translate(1615.699219 0)"/>
     <use xlink:href="#ArialMT-20" transform="translate(1671.314453 0)"/>
     <use xlink:href="#ArialMT-49" transform="translate(1699.097656 0)"/>
     <use xlink:href="#ArialMT-6d" transform="translate(1726.880859 0)"/>
     <use xlink:href="#ArialMT-61" transform="translate(1810.181641 0)"/>
     <use xlink:href="#ArialMT-67" transform="translate(1865.796875 0)"/>
     <use xlink:href="#ArialMT-65" transform="translate(1921.412109 0)"/>
    </g>
   </g>
   <g id="legend_1">
    <g id="patch_13">
     <path d="M 456.857812 78.470312 
L 555.979062 78.470312 
Q 558.179062 78.470312 558.179062 76.270312 
L 558.179062 29.635625 
Q 558.179062 27.435625 555.979062 27.435625 
L 456.857812 27.435625 
Q 454.657812 27.435625 454.657812 29.635625 
L 454.657812 76.270312 
Q 454.657812 78.470312 456.857812 78.470312 
z
" style="fill: #ffffff; opacity: 0.8; stroke: #cccccc; stroke-linejoin: miter"/>
    </g>
    <g id="text_13">
     <!-- Has_Image_Input -->
     <g style="fill: #262626" transform="translate(459.057812 40.425) scale(0.12 -0.12)">
      <defs>
       <path id="ArialMT-5f" d="M -97 -1272 
L -97 -866 
L 3631 -866 
L 3631 -1272 
L -97 -1272 
z
" transform="scale(0.015625)"/>
      </defs>
      <use xlink:href="#ArialMT-48"/>
      <use xlink:href="#ArialMT-61" transform="translate(72.216797 0)"/>
      <use xlink:href="#ArialMT-73" transform="translate(127.832031 0)"/>
      <use xlink:href="#ArialMT-5f" transform="translate(177.832031 0)"/>
      <use xlink:href="#ArialMT-49" transform="translate(233.447266 0)"/>
      <use xlink:href="#ArialMT-6d" transform="translate(261.230469 0)"/>
      <use xlink:href="#ArialMT-61" transform="translate(344.53125 0)"/>
      <use xlink:href="#ArialMT-67" transform="translate(400.146484 0)"/>
      <use xlink:href="#ArialMT-65" transform="translate(455.761719 0)"/>
      <use xlink:href="#ArialMT-5f" transform="translate(511.376953 0)"/>
      <use xlink:href="#ArialMT-49" transform="translate(566.992188 0)"/>
      <use xlink:href="#ArialMT-6e" transform="translate(594.775391 0)"/>
      <use xlink:href="#ArialMT-70" transform="translate(650.390625 0)"/>
      <use xlink:href="#ArialMT-75" transform="translate(706.005859 0)"/>
      <use xlink:href="#ArialMT-74" transform="translate(761.621094 0)"/>
     </g>
    </g>
    <g id="patch_14">
     <path d="M 477.570078 56.324219 
L 499.570078 56.324219 
L 499.570078 48.624219 
L 477.570078 48.624219 
z
" style="fill: #3274a1; stroke: #ffffff; stroke-linejoin: miter"/>
    </g>
    <g id="text_14">
     <!-- False -->
     <g style="fill: #262626" transform="translate(508.370078 56.324219) scale(0.11 -0.11)">
      <defs>
       <path id="ArialMT-46" d="M 525 0 
L 525 4581 
L 3616 4581 
L 3616 4041 
L 1131 4041 
L 1131 2622 
L 3281 2622 
L 3281 2081 
L 1131 2081 
L 1131 0 
L 525 0 
z
" transform="scale(0.015625)"/>
      </defs>
      <use xlink:href="#ArialMT-46"/>
      <use xlink:href="#ArialMT-61" transform="translate(61.083984 0)"/>
      <use xlink:href="#ArialMT-6c" transform="translate(116.699219 0)"/>
      <use xlink:href="#ArialMT-73" transform="translate(138.916016 0)"/>
      <use xlink:href="#ArialMT-65" transform="translate(188.916016 0)"/>
     </g>
    </g>
    <g id="patch_15">
     <path d="M 477.570078 71.884063 
L 499.570078 71.884063 
L 499.570078 64.184063 
L 477.570078 64.184063 
z
" style="fill: #e1812c; stroke: #ffffff; stroke-linejoin: miter"/>
    </g>
    <g id="text_15">
     <!-- True -->
     <g style="fill: #262626" transform="translate(508.370078 71.884063) scale(0.11 -0.11)">
      <defs>
       <path id="ArialMT-54" d="M 1659 0 
L 1659 4041 
L 150 4041 
L 150 4581 
L 3781 4581 
L 3781 4041 
L 2266 4041 
L 2266 0 
L 1659 0 
z
" transform="scale(0.015625)"/>
      </defs>
      <use xlink:href="#ArialMT-54"/>
      <use xlink:href="#ArialMT-72" transform="translate(57.333984 0)"/>
      <use xlink:href="#ArialMT-75" transform="translate(90.634766 0)"/>
      <use xlink:href="#ArialMT-65" transform="translate(146.25 0)"/>
     </g>
    </g>
   </g>
  </g>
  <g id="axes_2">
   <g id="patch_16">
    <path d="M 613.569062 384.935625 
L 1133.199062 384.935625 
L 1133.199062 21.935625 
L 613.569062 21.935625 
z
" style="fill: #ffffff"/>
   </g>
   <g id="matplotlib.axis_3">
    <g id="xtick_3">
     <g id="text_16">
      <!-- Hospital1 -->
      <g style="fill: #262626" transform="translate(720.548437 402.341875) scale(0.11 -0.11)">
       <use xlink:href="#ArialMT-48"/>
       <use xlink:href="#ArialMT-6f" transform="translate(72.216797 0)"/>
       <use xlink:href="#ArialMT-73" transform="translate(127.832031 0)"/>
       <use xlink:href="#ArialMT-70" transform="translate(177.832031 0)"/>
       <use xlink:href="#ArialMT-69" transform="translate(233.447266 0)"/>
       <use xlink:href="#ArialMT-74" transform="translate(255.664062 0)"/>
       <use xlink:href="#ArialMT-61" transform="translate(283.447266 0)"/>
       <use xlink:href="#ArialMT-6c" transform="translate(339.0625 0)"/>
       <use xlink:href="#ArialMT-31" transform="translate(361.279297 0)"/>
      </g>
     </g>
    </g>
    <g id="xtick_4">
     <g id="text_17">
      <!-- Hospital2 -->
      <g style="fill: #262626" transform="translate(980.363437 402.341875) scale(0.11 -0.11)">
       <use xlink:href="#ArialMT-48"/>
       <use xlink:href="#ArialMT-6f" transform="translate(72.216797 0)"/>
       <use xlink:href="#ArialMT-73" transform="translate(127.832031 0)"/>
       <use xlink:href="#ArialMT-70" transform="translate(177.832031 0)"/>
       <use xlink:href="#ArialMT-69" transform="translate(233.447266 0)"/>
       <use xlink:href="#ArialMT-74" transform="translate(255.664062 0)"/>
       <use xlink:href="#ArialMT-61" transform="translate(283.447266 0)"/>
       <use xlink:href="#ArialMT-6c" transform="translate(339.0625 0)"/>
       <use xlink:href="#ArialMT-32" transform="translate(361.279297 0)"/>
      </g>
     </g>
    </g>
    <g id="text_18">
     <!-- Hospital -->
     <g style="fill: #262626" transform="translate(851.708125 417.1175) scale(0.12 -0.12)">
      <use xlink:href="#ArialMT-48"/>
      <use xlink:href="#ArialMT-6f" transform="translate(72.216797 0)"/>
      <use xlink:href="#ArialMT-73" transform="translate(127.832031 0)"/>
      <use xlink:href="#ArialMT-70" transform="translate(177.832031 0)"/>
      <use xlink:href="#ArialMT-69" transform="translate(233.447266 0)"/>
      <use xlink:href="#ArialMT-74" transform="translate(255.664062 0)"/>
      <use xlink:href="#ArialMT-61" transform="translate(283.447266 0)"/>
      <use xlink:href="#ArialMT-6c" transform="translate(339.0625 0)"/>
     </g>
    </g>
   </g>
   <g id="matplotlib.axis_4">
    <g id="ytick_8">
     <g id="line2d_12">
      <path d="M 613.569062 384.935625 
L 1133.199062 384.935625 
" clip-path="url(#p24945c3f01)" style="fill: none; stroke: #cccccc; stroke-linecap: round"/>
     </g>
     <g id="text_19">
      <!-- 0 -->
      <g style="fill: #262626" transform="translate(597.952031 388.872422) scale(0.11 -0.11)">
       <use xlink:href="#ArialMT-30"/>
      </g>
     </g>
    </g>
    <g id="ytick_9">
     <g id="line2d_13">
      <path d="M 613.569062 338.226203 
L 1133.199062 338.226203 
" clip-path="url(#p24945c3f01)" style="fill: none; stroke: #cccccc; stroke-linecap: round"/>
     </g>
     <g id="text_20">
      <!-- 10 -->
      <g style="fill: #262626" transform="translate(591.835 342.163) scale(0.11 -0.11)">
       <use xlink:href="#ArialMT-31"/>
       <use xlink:href="#ArialMT-30" transform="translate(55.615234 0)"/>
      </g>
     </g>
    </g>
    <g id="ytick_10">
     <g id="line2d_14">
      <path d="M 613.569062 291.516781 
L 1133.199062 291.516781 
" clip-path="url(#p24945c3f01)" style="fill: none; stroke: #cccccc; stroke-linecap: round"/>
     </g>
     <g id="text_21">
      <!-- 20 -->
      <g style="fill: #262626" transform="translate(591.835 295.453578) scale(0.11 -0.11)">
       <use xlink:href="#ArialMT-32"/>
       <use xlink:href="#ArialMT-30" transform="translate(55.615234 0)"/>
      </g>
     </g>
    </g>
    <g id="ytick_11">
     <g id="line2d_15">
      <path d="M 613.569062 244.807359 
L 1133.199062 244.807359 
" clip-path="url(#p24945c3f01)" style="fill: none; stroke: #cccccc; stroke-linecap: round"/>
     </g>
     <g id="text_22">
      <!-- 30 -->
      <g style="fill: #262626" transform="translate(591.835 248.744155) scale(0.11 -0.11)">
       <use xlink:href="#ArialMT-33"/>
       <use xlink:href="#ArialMT-30" transform="translate(55.615234 0)"/>
      </g>
     </g>
    </g>
    <g id="ytick_12">
     <g id="line2d_16">
      <path d="M 613.569062 198.097936 
L 1133.199062 198.097936 
" clip-path="url(#p24945c3f01)" style="fill: none; stroke: #cccccc; stroke-linecap: round"/>
     </g>
     <g id="text_23">
      <!-- 40 -->
      <g style="fill: #262626" transform="translate(591.835 202.034733) scale(0.11 -0.11)">
       <use xlink:href="#ArialMT-34"/>
       <use xlink:href="#ArialMT-30" transform="translate(55.615234 0)"/>
      </g>
     </g>
    </g>
    <g id="ytick_13">
     <g id="line2d_17">
      <path d="M 613.569062 151.388514 
L 1133.199062 151.388514 
" clip-path="url(#p24945c3f01)" style="fill: none; stroke: #cccccc; stroke-linecap: round"/>
     </g>
     <g id="text_24">
      <!-- 50 -->
      <g style="fill: #262626" transform="translate(591.835 155.325311) scale(0.11 -0.11)">
       <use xlink:href="#ArialMT-35"/>
       <use xlink:href="#ArialMT-30" transform="translate(55.615234 0)"/>
      </g>
     </g>
    </g>
    <g id="ytick_14">
     <g id="line2d_18">
      <path d="M 613.569062 104.679092 
L 1133.199062 104.679092 
" clip-path="url(#p24945c3f01)" style="fill: none; stroke: #cccccc; stroke-linecap: round"/>
     </g>
     <g id="text_25">
      <!-- 60 -->
      <g style="fill: #262626" transform="translate(591.835 108.615889) scale(0.11 -0.11)">
       <use xlink:href="#ArialMT-36"/>
       <use xlink:href="#ArialMT-30" transform="translate(55.615234 0)"/>
      </g>
     </g>
    </g>
    <g id="ytick_15">
     <g id="line2d_19">
      <path d="M 613.569062 57.96967 
L 1133.199062 57.96967 
" clip-path="url(#p24945c3f01)" style="fill: none; stroke: #cccccc; stroke-linecap: round"/>
     </g>
     <g id="text_26">
      <!-- 70 -->
      <g style="fill: #262626" transform="translate(591.835 61.906467) scale(0.11 -0.11)">
       <defs>
        <path id="ArialMT-37" d="M 303 3981 
L 303 4522 
L 3269 4522 
L 3269 4084 
Q 2831 3619 2401 2847 
Q 1972 2075 1738 1259 
Q 1569 684 1522 0 
L 944 0 
Q 953 541 1156 1306 
Q 1359 2072 1739 2783 
Q 2119 3494 2547 3981 
L 303 3981 
z
" transform="scale(0.015625)"/>
       </defs>
       <use xlink:href="#ArialMT-37"/>
       <use xlink:href="#ArialMT-30" transform="translate(55.615234 0)"/>
      </g>
     </g>
    </g>
    <g id="text_27">
     <!-- F1score -->
     <g style="fill: #262626" transform="translate(585.45 225.107812) rotate(-90) scale(0.12 -0.12)">
      <use xlink:href="#ArialMT-46"/>
      <use xlink:href="#ArialMT-31" transform="translate(61.083984 0)"/>
      <use xlink:href="#ArialMT-73" transform="translate(116.699219 0)"/>
      <use xlink:href="#ArialMT-63" transform="translate(166.699219 0)"/>
      <use xlink:href="#ArialMT-6f" transform="translate(216.699219 0)"/>
      <use xlink:href="#ArialMT-72" transform="translate(272.314453 0)"/>
      <use xlink:href="#ArialMT-65" transform="translate(305.615234 0)"/>
     </g>
    </g>
   </g>
   <g id="patch_17">
    <path d="M 639.550562 384.935625 
L 743.476562 384.935625 
L 743.476562 39.221339 
L 639.550562 39.221339 
z
" clip-path="url(#p24945c3f01)" style="fill: #3274a1; stroke: #ffffff; stroke-linejoin: miter"/>
   </g>
   <g id="patch_18">
    <path d="M 899.365562 384.935625 
L 1003.291562 384.935625 
L 1003.291562 98.858057 
L 899.365562 98.858057 
z
" clip-path="url(#p24945c3f01)" style="fill: #3274a1; stroke: #ffffff; stroke-linejoin: miter"/>
   </g>
   <g id="patch_19">
    <path d="M 743.476562 384.935625 
L 847.402562 384.935625 
L 847.402562 73.819406 
L 743.476562 73.819406 
z
" clip-path="url(#p24945c3f01)" style="fill: #e1812c; stroke: #ffffff; stroke-linejoin: miter"/>
   </g>
   <g id="patch_20">
    <path d="M 1003.291562 384.935625 
L 1107.217562 384.935625 
L 1107.217562 117.346658 
L 1003.291562 117.346658 
z
" clip-path="url(#p24945c3f01)" style="fill: #e1812c; stroke: #ffffff; stroke-linejoin: miter"/>
   </g>
   <g id="patch_21">
    <path d="M 743.476562 384.935625 
L 743.476562 384.935625 
L 743.476562 384.935625 
L 743.476562 384.935625 
z
" clip-path="url(#p24945c3f01)" style="fill: #3274a1; stroke: #ffffff; stroke-linejoin: miter"/>
   </g>
   <g id="patch_22">
    <path d="M 743.476562 384.935625 
L 743.476562 384.935625 
L 743.476562 384.935625 
L 743.476562 384.935625 
z
" clip-path="url(#p24945c3f01)" style="fill: #e1812c; stroke: #ffffff; stroke-linejoin: miter"/>
   </g>
   <g id="line2d_20">
    <path clip-path="url(#p24945c3f01)" style="fill: none; stroke: #424242; stroke-width: 2.25; stroke-linecap: round"/>
   </g>
   <g id="line2d_21">
    <path clip-path="url(#p24945c3f01)" style="fill: none; stroke: #424242; stroke-width: 2.25; stroke-linecap: round"/>
   </g>
   <g id="line2d_22">
    <path clip-path="url(#p24945c3f01)" style="fill: none; stroke: #424242; stroke-width: 2.25; stroke-linecap: round"/>
   </g>
   <g id="line2d_23">
    <path clip-path="url(#p24945c3f01)" style="fill: none; stroke: #424242; stroke-width: 2.25; stroke-linecap: round"/>
   </g>
   <g id="patch_23">
    <path d="M 613.569062 384.935625 
L 613.569062 21.935625 
" style="fill: none; stroke: #cccccc; stroke-width: 1.25; stroke-linejoin: miter; stroke-linecap: square"/>
   </g>
   <g id="patch_24">
    <path d="M 1133.199062 384.935625 
L 1133.199062 21.935625 
" style="fill: none; stroke: #cccccc; stroke-width: 1.25; stroke-linejoin: miter; stroke-linecap: square"/>
   </g>
   <g id="patch_25">
    <path d="M 613.569062 384.935625 
L 1133.199062 384.935625 
" style="fill: none; stroke: #cccccc; stroke-width: 1.25; stroke-linejoin: miter; stroke-linecap: square"/>
   </g>
   <g id="patch_26">
    <path d="M 613.569062 21.935625 
L 1133.199062 21.935625 
" style="fill: none; stroke: #cccccc; stroke-width: 1.25; stroke-linejoin: miter; stroke-linecap: square"/>
   </g>
   <g id="text_28">
    <!-- Average F1 Score: Image Input vs No Image -->
    <g style="fill: #262626" transform="translate(754.771562 15.935625) scale(0.12 -0.12)">
     <defs>
      <path id="ArialMT-53" d="M 288 1472 
L 859 1522 
Q 900 1178 1048 958 
Q 1197 738 1509 602 
Q 1822 466 2213 466 
Q 2559 466 2825 569 
Q 3091 672 3220 851 
Q 3350 1031 3350 1244 
Q 3350 1459 3225 1620 
Q 3100 1781 2813 1891 
Q 2628 1963 1997 2114 
Q 1366 2266 1113 2400 
Q 784 2572 623 2826 
Q 463 3081 463 3397 
Q 463 3744 659 4045 
Q 856 4347 1234 4503 
Q 1613 4659 2075 4659 
Q 2584 4659 2973 4495 
Q 3363 4331 3572 4012 
Q 3781 3694 3797 3291 
L 3216 3247 
Q 3169 3681 2898 3903 
Q 2628 4125 2100 4125 
Q 1550 4125 1298 3923 
Q 1047 3722 1047 3438 
Q 1047 3191 1225 3031 
Q 1400 2872 2139 2705 
Q 2878 2538 3153 2413 
Q 3553 2228 3743 1945 
Q 3934 1663 3934 1294 
Q 3934 928 3725 604 
Q 3516 281 3123 101 
Q 2731 -78 2241 -78 
Q 1619 -78 1198 103 
Q 778 284 539 648 
Q 300 1013 288 1472 
z
" transform="scale(0.015625)"/>
     </defs>
     <use xlink:href="#ArialMT-41"/>
     <use xlink:href="#ArialMT-76" transform="translate(64.949219 0)"/>
     <use xlink:href="#ArialMT-65" transform="translate(114.949219 0)"/>
     <use xlink:href="#ArialMT-72" transform="translate(170.564453 0)"/>
     <use xlink:href="#ArialMT-61" transform="translate(203.865234 0)"/>
     <use xlink:href="#ArialMT-67" transform="translate(259.480469 0)"/>
     <use xlink:href="#ArialMT-65" transform="translate(315.095703 0)"/>
     <use xlink:href="#ArialMT-20" transform="translate(370.710938 0)"/>
     <use xlink:href="#ArialMT-46" transform="translate(398.494141 0)"/>
     <use xlink:href="#ArialMT-31" transform="translate(459.578125 0)"/>
     <use xlink:href="#ArialMT-20" transform="translate(515.193359 0)"/>
     <use xlink:href="#ArialMT-53" transform="translate(542.976562 0)"/>
     <use xlink:href="#ArialMT-63" transform="translate(609.675781 0)"/>
     <use xlink:href="#ArialMT-6f" transform="translate(659.675781 0)"/>
     <use xlink:href="#ArialMT-72" transform="translate(715.291016 0)"/>
     <use xlink:href="#ArialMT-65" transform="translate(748.591797 0)"/>
     <use xlink:href="#ArialMT-3a" transform="translate(804.207031 0)"/>
     <use xlink:href="#ArialMT-20" transform="translate(831.990234 0)"/>
     <use xlink:href="#ArialMT-49" transform="translate(859.773438 0)"/>
     <use xlink:href="#ArialMT-6d" transform="translate(887.556641 0)"/>
     <use xlink:href="#ArialMT-61" transform="translate(970.857422 0)"/>
     <use xlink:href="#ArialMT-67" transform="translate(1026.472656 0)"/>
     <use xlink:href="#ArialMT-65" transform="translate(1082.087891 0)"/>
     <use xlink:href="#ArialMT-20" transform="translate(1137.703125 0)"/>
     <use xlink:href="#ArialMT-49" transform="translate(1165.486328 0)"/>
     <use xlink:href="#ArialMT-6e" transform="translate(1193.269531 0)"/>
     <use xlink:href="#ArialMT-70" transform="translate(1248.884766 0)"/>
     <use xlink:href="#ArialMT-75" transform="translate(1304.5 0)"/>
     <use xlink:href="#ArialMT-74" transform="translate(1360.115234 0)"/>
     <use xlink:href="#ArialMT-20" transform="translate(1387.898438 0)"/>
     <use xlink:href="#ArialMT-76" transform="translate(1415.681641 0)"/>
     <use xlink:href="#ArialMT-73" transform="translate(1465.681641 0)"/>
     <use xlink:href="#ArialMT-20" transform="translate(1515.681641 0)"/>
     <use xlink:href="#ArialMT-4e" transform="translate(1543.464844 0)"/>
     <use xlink:href="#ArialMT-6f" transform="translate(1615.681641 0)"/>
     <use xlink:href="#ArialMT-20" transform="translate(1671.296875 0)"/>
     <use xlink:href="#ArialMT-49" transform="translate(1699.080078 0)"/>
     <use xlink:href="#ArialMT-6d" transform="translate(1726.863281 0)"/>
     <use xlink:href="#ArialMT-61" transform="translate(1810.164062 0)"/>
     <use xlink:href="#ArialMT-67" transform="translate(1865.779297 0)"/>
     <use xlink:href="#ArialMT-65" transform="translate(1921.394531 0)"/>
    </g>
   </g>
   <g id="legend_2">
    <g id="patch_27">
     <path d="M 1026.377812 78.470312 
L 1125.499062 78.470312 
Q 1127.699062 78.470312 1127.699062 76.270312 
L 1127.699062 29.635625 
Q 1127.699062 27.435625 1125.499062 27.435625 
L 1026.377812 27.435625 
Q 1024.177812 27.435625 1024.177812 29.635625 
L 1024.177812 76.270312 
Q 1024.177812 78.470312 1026.377812 78.470312 
z
" style="fill: #ffffff; opacity: 0.8; stroke: #cccccc; stroke-linejoin: miter"/>
    </g>
    <g id="text_29">
     <!-- Has_Image_Input -->
     <g style="fill: #262626" transform="translate(1028.577812 40.425) scale(0.12 -0.12)">
      <use xlink:href="#ArialMT-48"/>
      <use xlink:href="#ArialMT-61" transform="translate(72.216797 0)"/>
      <use xlink:href="#ArialMT-73" transform="translate(127.832031 0)"/>
      <use xlink:href="#ArialMT-5f" transform="translate(177.832031 0)"/>
      <use xlink:href="#ArialMT-49" transform="translate(233.447266 0)"/>
      <use xlink:href="#ArialMT-6d" transform="translate(261.230469 0)"/>
      <use xlink:href="#ArialMT-61" transform="translate(344.53125 0)"/>
      <use xlink:href="#ArialMT-67" transform="translate(400.146484 0)"/>
      <use xlink:href="#ArialMT-65" transform="translate(455.761719 0)"/>
      <use xlink:href="#ArialMT-5f" transform="translate(511.376953 0)"/>
      <use xlink:href="#ArialMT-49" transform="translate(566.992188 0)"/>
      <use xlink:href="#ArialMT-6e" transform="translate(594.775391 0)"/>
      <use xlink:href="#ArialMT-70" transform="translate(650.390625 0)"/>
      <use xlink:href="#ArialMT-75" transform="translate(706.005859 0)"/>
      <use xlink:href="#ArialMT-74" transform="translate(761.621094 0)"/>
     </g>
    </g>
    <g id="patch_28">
     <path d="M 1047.090078 56.324219 
L 1069.090078 56.324219 
L 1069.090078 48.624219 
L 1047.090078 48.624219 
z
" style="fill: #3274a1; stroke: #ffffff; stroke-linejoin: miter"/>
    </g>
    <g id="text_30">
     <!-- False -->
     <g style="fill: #262626" transform="translate(1077.890078 56.324219) scale(0.11 -0.11)">
      <use xlink:href="#ArialMT-46"/>
      <use xlink:href="#ArialMT-61" transform="translate(61.083984 0)"/>
      <use xlink:href="#ArialMT-6c" transform="translate(116.699219 0)"/>
      <use xlink:href="#ArialMT-73" transform="translate(138.916016 0)"/>
      <use xlink:href="#ArialMT-65" transform="translate(188.916016 0)"/>
     </g>
    </g>
    <g id="patch_29">
     <path d="M 1047.090078 71.884063 
L 1069.090078 71.884063 
L 1069.090078 64.184063 
L 1047.090078 64.184063 
z
" style="fill: #e1812c; stroke: #ffffff; stroke-linejoin: miter"/>
    </g>
    <g id="text_31">
     <!-- True -->
     <g style="fill: #262626" transform="translate(1077.890078 71.884063) scale(0.11 -0.11)">
      <use xlink:href="#ArialMT-54"/>
      <use xlink:href="#ArialMT-72" transform="translate(57.333984 0)"/>
      <use xlink:href="#ArialMT-75" transform="translate(90.634766 0)"/>
      <use xlink:href="#ArialMT-65" transform="translate(146.25 0)"/>
     </g>
    </g>
   </g>
  </g>
  <g id="axes_3">
   <g id="patch_30">
    <path d="M 44.049063 810.395625 
L 563.679062 810.395625 
L 563.679062 447.395625 
L 44.049063 447.395625 
z
" style="fill: #ffffff"/>
   </g>
   <g id="matplotlib.axis_5">
    <g id="xtick_5">
     <g id="text_32">
      <!-- Hospital1 -->
      <g style="fill: #262626" transform="translate(151.028438 827.801875) scale(0.11 -0.11)">
       <use xlink:href="#ArialMT-48"/>
       <use xlink:href="#ArialMT-6f" transform="translate(72.216797 0)"/>
       <use xlink:href="#ArialMT-73" transform="translate(127.832031 0)"/>
       <use xlink:href="#ArialMT-70" transform="translate(177.832031 0)"/>
       <use xlink:href="#ArialMT-69" transform="translate(233.447266 0)"/>
       <use xlink:href="#ArialMT-74" transform="translate(255.664062 0)"/>
       <use xlink:href="#ArialMT-61" transform="translate(283.447266 0)"/>
       <use xlink:href="#ArialMT-6c" transform="translate(339.0625 0)"/>
       <use xlink:href="#ArialMT-31" transform="translate(361.279297 0)"/>
      </g>
     </g>
    </g>
    <g id="xtick_6">
     <g id="text_33">
      <!-- Hospital2 -->
      <g style="fill: #262626" transform="translate(410.843437 827.801875) scale(0.11 -0.11)">
       <use xlink:href="#ArialMT-48"/>
       <use xlink:href="#ArialMT-6f" transform="translate(72.216797 0)"/>
       <use xlink:href="#ArialMT-73" transform="translate(127.832031 0)"/>
       <use xlink:href="#ArialMT-70" transform="translate(177.832031 0)"/>
       <use xlink:href="#ArialMT-69" transform="translate(233.447266 0)"/>
       <use xlink:href="#ArialMT-74" transform="translate(255.664062 0)"/>
       <use xlink:href="#ArialMT-61" transform="translate(283.447266 0)"/>
       <use xlink:href="#ArialMT-6c" transform="translate(339.0625 0)"/>
       <use xlink:href="#ArialMT-32" transform="translate(361.279297 0)"/>
      </g>
     </g>
    </g>
    <g id="text_34">
     <!-- Hospital -->
     <g style="fill: #262626" transform="translate(282.188125 842.5775) scale(0.12 -0.12)">
      <use xlink:href="#ArialMT-48"/>
      <use xlink:href="#ArialMT-6f" transform="translate(72.216797 0)"/>
      <use xlink:href="#ArialMT-73" transform="translate(127.832031 0)"/>
      <use xlink:href="#ArialMT-70" transform="translate(177.832031 0)"/>
      <use xlink:href="#ArialMT-69" transform="translate(233.447266 0)"/>
      <use xlink:href="#ArialMT-74" transform="translate(255.664062 0)"/>
      <use xlink:href="#ArialMT-61" transform="translate(283.447266 0)"/>
      <use xlink:href="#ArialMT-6c" transform="translate(339.0625 0)"/>
     </g>
    </g>
   </g>
   <g id="matplotlib.axis_6">
    <g id="ytick_16">
     <g id="line2d_24">
      <path d="M 44.049063 810.395625 
L 563.679062 810.395625 
" clip-path="url(#p4dc42ed5c9)" style="fill: none; stroke: #cccccc; stroke-linecap: round"/>
     </g>
     <g id="text_35">
      <!-- 0 -->
      <g style="fill: #262626" transform="translate(28.432031 814.332422) scale(0.11 -0.11)">
       <use xlink:href="#ArialMT-30"/>
      </g>
     </g>
    </g>
    <g id="ytick_17">
     <g id="line2d_25">
      <path d="M 44.049063 742.341632 
L 563.679062 742.341632 
" clip-path="url(#p4dc42ed5c9)" style="fill: none; stroke: #cccccc; stroke-linecap: round"/>
     </g>
     <g id="text_36">
      <!-- 5 -->
      <g style="fill: #262626" transform="translate(28.432031 746.278429) scale(0.11 -0.11)">
       <use xlink:href="#ArialMT-35"/>
      </g>
     </g>
    </g>
    <g id="ytick_18">
     <g id="line2d_26">
      <path d="M 44.049063 674.287638 
L 563.679062 674.287638 
" clip-path="url(#p4dc42ed5c9)" style="fill: none; stroke: #cccccc; stroke-linecap: round"/>
     </g>
     <g id="text_37">
      <!-- 10 -->
      <g style="fill: #262626" transform="translate(22.315 678.224435) scale(0.11 -0.11)">
       <use xlink:href="#ArialMT-31"/>
       <use xlink:href="#ArialMT-30" transform="translate(55.615234 0)"/>
      </g>
     </g>
    </g>
    <g id="ytick_19">
     <g id="line2d_27">
      <path d="M 44.049063 606.233645 
L 563.679062 606.233645 
" clip-path="url(#p4dc42ed5c9)" style="fill: none; stroke: #cccccc; stroke-linecap: round"/>
     </g>
     <g id="text_38">
      <!-- 15 -->
      <g style="fill: #262626" transform="translate(22.315 610.170442) scale(0.11 -0.11)">
       <use xlink:href="#ArialMT-31"/>
       <use xlink:href="#ArialMT-35" transform="translate(55.615234 0)"/>
      </g>
     </g>
    </g>
    <g id="ytick_20">
     <g id="line2d_28">
      <path d="M 44.049063 538.179652 
L 563.679062 538.179652 
" clip-path="url(#p4dc42ed5c9)" style="fill: none; stroke: #cccccc; stroke-linecap: round"/>
     </g>
     <g id="text_39">
      <!-- 20 -->
      <g style="fill: #262626" transform="translate(22.315 542.116449) scale(0.11 -0.11)">
       <use xlink:href="#ArialMT-32"/>
       <use xlink:href="#ArialMT-30" transform="translate(55.615234 0)"/>
      </g>
     </g>
    </g>
    <g id="ytick_21">
     <g id="line2d_29">
      <path d="M 44.049063 470.125659 
L 563.679062 470.125659 
" clip-path="url(#p4dc42ed5c9)" style="fill: none; stroke: #cccccc; stroke-linecap: round"/>
     </g>
     <g id="text_40">
      <!-- 25 -->
      <g style="fill: #262626" transform="translate(22.315 474.062456) scale(0.11 -0.11)">
       <use xlink:href="#ArialMT-32"/>
       <use xlink:href="#ArialMT-35" transform="translate(55.615234 0)"/>
      </g>
     </g>
    </g>
    <g id="text_41">
     <!-- False Positives -->
     <g style="fill: #262626" transform="translate(15.93 669.241875) rotate(-90) scale(0.12 -0.12)">
      <defs>
       <path id="ArialMT-50" d="M 494 0 
L 494 4581 
L 2222 4581 
Q 2678 4581 2919 4538 
Q 3256 4481 3484 4323 
Q 3713 4166 3852 3881 
Q 3991 3597 3991 3256 
Q 3991 2672 3619 2267 
Q 3247 1863 2275 1863 
L 1100 1863 
L 1100 0 
L 494 0 
z
M 1100 2403 
L 2284 2403 
Q 2872 2403 3119 2622 
Q 3366 2841 3366 3238 
Q 3366 3525 3220 3729 
Q 3075 3934 2838 4000 
Q 2684 4041 2272 4041 
L 1100 4041 
L 1100 2403 
z
" transform="scale(0.015625)"/>
      </defs>
      <use xlink:href="#ArialMT-46"/>
      <use xlink:href="#ArialMT-61" transform="translate(61.083984 0)"/>
      <use xlink:href="#ArialMT-6c" transform="translate(116.699219 0)"/>
      <use xlink:href="#ArialMT-73" transform="translate(138.916016 0)"/>
      <use xlink:href="#ArialMT-65" transform="translate(188.916016 0)"/>
      <use xlink:href="#ArialMT-20" transform="translate(244.53125 0)"/>
      <use xlink:href="#ArialMT-50" transform="translate(272.314453 0)"/>
      <use xlink:href="#ArialMT-6f" transform="translate(339.013672 0)"/>
      <use xlink:href="#ArialMT-73" transform="translate(394.628906 0)"/>
      <use xlink:href="#ArialMT-69" transform="translate(444.628906 0)"/>
      <use xlink:href="#ArialMT-74" transform="translate(466.845703 0)"/>
      <use xlink:href="#ArialMT-69" transform="translate(494.628906 0)"/>
      <use xlink:href="#ArialMT-76" transform="translate(516.845703 0)"/>
      <use xlink:href="#ArialMT-65" transform="translate(566.845703 0)"/>
      <use xlink:href="#ArialMT-73" transform="translate(622.460938 0)"/>
     </g>
    </g>
   </g>
   <g id="patch_31">
    <path d="M 70.030563 810.395625 
L 173.956563 810.395625 
L 173.956563 589.900687 
L 70.030563 589.900687 
z
" clip-path="url(#p4dc42ed5c9)" style="fill: #3274a1; stroke: #ffffff; stroke-linejoin: miter"/>
   </g>
   <g id="patch_32">
    <path d="M 329.845563 810.395625 
L 433.771563 810.395625 
L 433.771563 464.681339 
L 329.845563 464.681339 
z
" clip-path="url(#p4dc42ed5c9)" style="fill: #3274a1; stroke: #ffffff; stroke-linejoin: miter"/>
   </g>
   <g id="patch_33">
    <path d="M 173.956563 810.395625 
L 277.882563 810.395625 
L 277.882563 623.247144 
L 173.956563 623.247144 
z
" clip-path="url(#p4dc42ed5c9)" style="fill: #e1812c; stroke: #ffffff; stroke-linejoin: miter"/>
   </g>
   <g id="patch_34">
    <path d="M 433.771563 810.395625 
L 537.697563 810.395625 
L 537.697563 623.247144 
L 433.771563 623.247144 
z
" clip-path="url(#p4dc42ed5c9)" style="fill: #e1812c; stroke: #ffffff; stroke-linejoin: miter"/>
   </g>
   <g id="patch_35">
    <path d="M 173.956563 810.395625 
L 173.956563 810.395625 
L 173.956563 810.395625 
L 173.956563 810.395625 
z
" clip-path="url(#p4dc42ed5c9)" style="fill: #3274a1; stroke: #ffffff; stroke-linejoin: miter"/>
   </g>
   <g id="patch_36">
    <path d="M 173.956563 810.395625 
L 173.956563 810.395625 
L 173.956563 810.395625 
L 173.956563 810.395625 
z
" clip-path="url(#p4dc42ed5c9)" style="fill: #e1812c; stroke: #ffffff; stroke-linejoin: miter"/>
   </g>
   <g id="line2d_30">
    <path clip-path="url(#p4dc42ed5c9)" style="fill: none; stroke: #424242; stroke-width: 2.25; stroke-linecap: round"/>
   </g>
   <g id="line2d_31">
    <path clip-path="url(#p4dc42ed5c9)" style="fill: none; stroke: #424242; stroke-width: 2.25; stroke-linecap: round"/>
   </g>
   <g id="line2d_32">
    <path clip-path="url(#p4dc42ed5c9)" style="fill: none; stroke: #424242; stroke-width: 2.25; stroke-linecap: round"/>
   </g>
   <g id="line2d_33">
    <path clip-path="url(#p4dc42ed5c9)" style="fill: none; stroke: #424242; stroke-width: 2.25; stroke-linecap: round"/>
   </g>
   <g id="patch_37">
    <path d="M 44.049063 810.395625 
L 44.049063 447.395625 
" style="fill: none; stroke: #cccccc; stroke-width: 1.25; stroke-linejoin: miter; stroke-linecap: square"/>
   </g>
   <g id="patch_38">
    <path d="M 563.679062 810.395625 
L 563.679062 447.395625 
" style="fill: none; stroke: #cccccc; stroke-width: 1.25; stroke-linejoin: miter; stroke-linecap: square"/>
   </g>
   <g id="patch_39">
    <path d="M 44.049063 810.395625 
L 563.679062 810.395625 
" style="fill: none; stroke: #cccccc; stroke-width: 1.25; stroke-linejoin: miter; stroke-linecap: square"/>
   </g>
   <g id="patch_40">
    <path d="M 44.049063 447.395625 
L 563.679062 447.395625 
" style="fill: none; stroke: #cccccc; stroke-width: 1.25; stroke-linejoin: miter; stroke-linecap: square"/>
   </g>
   <g id="text_42">
    <!-- Average False Positives: Image Input vs No Image -->
    <g style="fill: #262626" transform="translate(169.246562 441.395625) scale(0.12 -0.12)">
     <use xlink:href="#ArialMT-41"/>
     <use xlink:href="#ArialMT-76" transform="translate(64.949219 0)"/>
     <use xlink:href="#ArialMT-65" transform="translate(114.949219 0)"/>
     <use xlink:href="#ArialMT-72" transform="translate(170.564453 0)"/>
     <use xlink:href="#ArialMT-61" transform="translate(203.865234 0)"/>
     <use xlink:href="#ArialMT-67" transform="translate(259.480469 0)"/>
     <use xlink:href="#ArialMT-65" transform="translate(315.095703 0)"/>
     <use xlink:href="#ArialMT-20" transform="translate(370.710938 0)"/>
     <use xlink:href="#ArialMT-46" transform="translate(398.494141 0)"/>
     <use xlink:href="#ArialMT-61" transform="translate(459.578125 0)"/>
     <use xlink:href="#ArialMT-6c" transform="translate(515.193359 0)"/>
     <use xlink:href="#ArialMT-73" transform="translate(537.410156 0)"/>
     <use xlink:href="#ArialMT-65" transform="translate(587.410156 0)"/>
     <use xlink:href="#ArialMT-20" transform="translate(643.025391 0)"/>
     <use xlink:href="#ArialMT-50" transform="translate(670.808594 0)"/>
     <use xlink:href="#ArialMT-6f" transform="translate(737.507812 0)"/>
     <use xlink:href="#ArialMT-73" transform="translate(793.123047 0)"/>
     <use xlink:href="#ArialMT-69" transform="translate(843.123047 0)"/>
     <use xlink:href="#ArialMT-74" transform="translate(865.339844 0)"/>
     <use xlink:href="#ArialMT-69" transform="translate(893.123047 0)"/>
     <use xlink:href="#ArialMT-76" transform="translate(915.339844 0)"/>
     <use xlink:href="#ArialMT-65" transform="translate(965.339844 0)"/>
     <use xlink:href="#ArialMT-73" transform="translate(1020.955078 0)"/>
     <use xlink:href="#ArialMT-3a" transform="translate(1070.955078 0)"/>
     <use xlink:href="#ArialMT-20" transform="translate(1098.738281 0)"/>
     <use xlink:href="#ArialMT-49" transform="translate(1126.521484 0)"/>
     <use xlink:href="#ArialMT-6d" transform="translate(1154.304688 0)"/>
     <use xlink:href="#ArialMT-61" transform="translate(1237.605469 0)"/>
     <use xlink:href="#ArialMT-67" transform="translate(1293.220703 0)"/>
     <use xlink:href="#ArialMT-65" transform="translate(1348.835938 0)"/>
     <use xlink:href="#ArialMT-20" transform="translate(1404.451172 0)"/>
     <use xlink:href="#ArialMT-49" transform="translate(1432.234375 0)"/>
     <use xlink:href="#ArialMT-6e" transform="translate(1460.017578 0)"/>
     <use xlink:href="#ArialMT-70" transform="translate(1515.632812 0)"/>
     <use xlink:href="#ArialMT-75" transform="translate(1571.248047 0)"/>
     <use xlink:href="#ArialMT-74" transform="translate(1626.863281 0)"/>
     <use xlink:href="#ArialMT-20" transform="translate(1654.646484 0)"/>
     <use xlink:href="#ArialMT-76" transform="translate(1682.429688 0)"/>
     <use xlink:href="#ArialMT-73" transform="translate(1732.429688 0)"/>
     <use xlink:href="#ArialMT-20" transform="translate(1782.429688 0)"/>
     <use xlink:href="#ArialMT-4e" transform="translate(1810.212891 0)"/>
     <use xlink:href="#ArialMT-6f" transform="translate(1882.429688 0)"/>
     <use xlink:href="#ArialMT-20" transform="translate(1938.044922 0)"/>
     <use xlink:href="#ArialMT-49" transform="translate(1965.828125 0)"/>
     <use xlink:href="#ArialMT-6d" transform="translate(1993.611328 0)"/>
     <use xlink:href="#ArialMT-61" transform="translate(2076.912109 0)"/>
     <use xlink:href="#ArialMT-67" transform="translate(2132.527344 0)"/>
     <use xlink:href="#ArialMT-65" transform="translate(2188.142578 0)"/>
    </g>
   </g>
   <g id="legend_3">
    <g id="patch_41">
     <path d="M 456.857812 503.930313 
L 555.979062 503.930313 
Q 558.179062 503.930313 558.179062 501.730313 
L 558.179062 455.095625 
Q 558.179062 452.895625 555.979062 452.895625 
L 456.857812 452.895625 
Q 454.657812 452.895625 454.657812 455.095625 
L 454.657812 501.730313 
Q 454.657812 503.930313 456.857812 503.930313 
z
" style="fill: #ffffff; opacity: 0.8; stroke: #cccccc; stroke-linejoin: miter"/>
    </g>
    <g id="text_43">
     <!-- Has_Image_Input -->
     <g style="fill: #262626" transform="translate(459.057812 465.885) scale(0.12 -0.12)">
      <use xlink:href="#ArialMT-48"/>
      <use xlink:href="#ArialMT-61" transform="translate(72.216797 0)"/>
      <use xlink:href="#ArialMT-73" transform="translate(127.832031 0)"/>
      <use xlink:href="#ArialMT-5f" transform="translate(177.832031 0)"/>
      <use xlink:href="#ArialMT-49" transform="translate(233.447266 0)"/>
      <use xlink:href="#ArialMT-6d" transform="translate(261.230469 0)"/>
      <use xlink:href="#ArialMT-61" transform="translate(344.53125 0)"/>
      <use xlink:href="#ArialMT-67" transform="translate(400.146484 0)"/>
      <use xlink:href="#ArialMT-65" transform="translate(455.761719 0)"/>
      <use xlink:href="#ArialMT-5f" transform="translate(511.376953 0)"/>
      <use xlink:href="#ArialMT-49" transform="translate(566.992188 0)"/>
      <use xlink:href="#ArialMT-6e" transform="translate(594.775391 0)"/>
      <use xlink:href="#ArialMT-70" transform="translate(650.390625 0)"/>
      <use xlink:href="#ArialMT-75" transform="translate(706.005859 0)"/>
      <use xlink:href="#ArialMT-74" transform="translate(761.621094 0)"/>
     </g>
    </g>
    <g id="patch_42">
     <path d="M 477.570078 481.784219 
L 499.570078 481.784219 
L 499.570078 474.084219 
L 477.570078 474.084219 
z
" style="fill: #3274a1; stroke: #ffffff; stroke-linejoin: miter"/>
    </g>
    <g id="text_44">
     <!-- False -->
     <g style="fill: #262626" transform="translate(508.370078 481.784219) scale(0.11 -0.11)">
      <use xlink:href="#ArialMT-46"/>
      <use xlink:href="#ArialMT-61" transform="translate(61.083984 0)"/>
      <use xlink:href="#ArialMT-6c" transform="translate(116.699219 0)"/>
      <use xlink:href="#ArialMT-73" transform="translate(138.916016 0)"/>
      <use xlink:href="#ArialMT-65" transform="translate(188.916016 0)"/>
     </g>
    </g>
    <g id="patch_43">
     <path d="M 477.570078 497.344063 
L 499.570078 497.344063 
L 499.570078 489.644063 
L 477.570078 489.644063 
z
" style="fill: #e1812c; stroke: #ffffff; stroke-linejoin: miter"/>
    </g>
    <g id="text_45">
     <!-- True -->
     <g style="fill: #262626" transform="translate(508.370078 497.344063) scale(0.11 -0.11)">
      <use xlink:href="#ArialMT-54"/>
      <use xlink:href="#ArialMT-72" transform="translate(57.333984 0)"/>
      <use xlink:href="#ArialMT-75" transform="translate(90.634766 0)"/>
      <use xlink:href="#ArialMT-65" transform="translate(146.25 0)"/>
     </g>
    </g>
   </g>
  </g>
  <g id="axes_4">
   <g id="patch_44">
    <path d="M 613.569062 810.395625 
L 1133.199062 810.395625 
L 1133.199062 447.395625 
L 613.569062 447.395625 
z
" style="fill: #ffffff"/>
   </g>
   <g id="matplotlib.axis_7">
    <g id="xtick_7">
     <g id="text_46">
      <!-- Hospital1 -->
      <g style="fill: #262626" transform="translate(720.548437 827.801875) scale(0.11 -0.11)">
       <use xlink:href="#ArialMT-48"/>
       <use xlink:href="#ArialMT-6f" transform="translate(72.216797 0)"/>
       <use xlink:href="#ArialMT-73" transform="translate(127.832031 0)"/>
       <use xlink:href="#ArialMT-70" transform="translate(177.832031 0)"/>
       <use xlink:href="#ArialMT-69" transform="translate(233.447266 0)"/>
       <use xlink:href="#ArialMT-74" transform="translate(255.664062 0)"/>
       <use xlink:href="#ArialMT-61" transform="translate(283.447266 0)"/>
       <use xlink:href="#ArialMT-6c" transform="translate(339.0625 0)"/>
       <use xlink:href="#ArialMT-31" transform="translate(361.279297 0)"/>
      </g>
     </g>
    </g>
    <g id="xtick_8">
     <g id="text_47">
      <!-- Hospital2 -->
      <g style="fill: #262626" transform="translate(980.363437 827.801875) scale(0.11 -0.11)">
       <use xlink:href="#ArialMT-48"/>
       <use xlink:href="#ArialMT-6f" transform="translate(72.216797 0)"/>
       <use xlink:href="#ArialMT-73" transform="translate(127.832031 0)"/>
       <use xlink:href="#ArialMT-70" transform="translate(177.832031 0)"/>
       <use xlink:href="#ArialMT-69" transform="translate(233.447266 0)"/>
       <use xlink:href="#ArialMT-74" transform="translate(255.664062 0)"/>
       <use xlink:href="#ArialMT-61" transform="translate(283.447266 0)"/>
       <use xlink:href="#ArialMT-6c" transform="translate(339.0625 0)"/>
       <use xlink:href="#ArialMT-32" transform="translate(361.279297 0)"/>
      </g>
     </g>
    </g>
    <g id="text_48">
     <!-- Hospital -->
     <g style="fill: #262626" transform="translate(851.708125 842.5775) scale(0.12 -0.12)">
      <use xlink:href="#ArialMT-48"/>
      <use xlink:href="#ArialMT-6f" transform="translate(72.216797 0)"/>
      <use xlink:href="#ArialMT-73" transform="translate(127.832031 0)"/>
      <use xlink:href="#ArialMT-70" transform="translate(177.832031 0)"/>
      <use xlink:href="#ArialMT-69" transform="translate(233.447266 0)"/>
      <use xlink:href="#ArialMT-74" transform="translate(255.664062 0)"/>
      <use xlink:href="#ArialMT-61" transform="translate(283.447266 0)"/>
      <use xlink:href="#ArialMT-6c" transform="translate(339.0625 0)"/>
     </g>
    </g>
   </g>
   <g id="matplotlib.axis_8">
    <g id="ytick_22">
     <g id="line2d_34">
      <path d="M 613.569062 810.395625 
L 1133.199062 810.395625 
" clip-path="url(#p0eebf6d671)" style="fill: none; stroke: #cccccc; stroke-linecap: round"/>
     </g>
     <g id="text_49">
      <!-- 0 -->
      <g style="fill: #262626" transform="translate(597.952031 814.332422) scale(0.11 -0.11)">
       <use xlink:href="#ArialMT-30"/>
      </g>
     </g>
    </g>
    <g id="ytick_23">
     <g id="line2d_35">
      <path d="M 613.569062 736.839394 
L 1133.199062 736.839394 
" clip-path="url(#p0eebf6d671)" style="fill: none; stroke: #cccccc; stroke-linecap: round"/>
     </g>
     <g id="text_50">
      <!-- 10 -->
      <g style="fill: #262626" transform="translate(591.835 740.776191) scale(0.11 -0.11)">
       <use xlink:href="#ArialMT-31"/>
       <use xlink:href="#ArialMT-30" transform="translate(55.615234 0)"/>
      </g>
     </g>
    </g>
    <g id="ytick_24">
     <g id="line2d_36">
      <path d="M 613.569062 663.283163 
L 1133.199062 663.283163 
" clip-path="url(#p0eebf6d671)" style="fill: none; stroke: #cccccc; stroke-linecap: round"/>
     </g>
     <g id="text_51">
      <!-- 20 -->
      <g style="fill: #262626" transform="translate(591.835 667.21996) scale(0.11 -0.11)">
       <use xlink:href="#ArialMT-32"/>
       <use xlink:href="#ArialMT-30" transform="translate(55.615234 0)"/>
      </g>
     </g>
    </g>
    <g id="ytick_25">
     <g id="line2d_37">
      <path d="M 613.569062 589.726932 
L 1133.199062 589.726932 
" clip-path="url(#p0eebf6d671)" style="fill: none; stroke: #cccccc; stroke-linecap: round"/>
     </g>
     <g id="text_52">
      <!-- 30 -->
      <g style="fill: #262626" transform="translate(591.835 593.663729) scale(0.11 -0.11)">
       <use xlink:href="#ArialMT-33"/>
       <use xlink:href="#ArialMT-30" transform="translate(55.615234 0)"/>
      </g>
     </g>
    </g>
    <g id="ytick_26">
     <g id="line2d_38">
      <path d="M 613.569062 516.170701 
L 1133.199062 516.170701 
" clip-path="url(#p0eebf6d671)" style="fill: none; stroke: #cccccc; stroke-linecap: round"/>
     </g>
     <g id="text_53">
      <!-- 40 -->
      <g style="fill: #262626" transform="translate(591.835 520.107498) scale(0.11 -0.11)">
       <use xlink:href="#ArialMT-34"/>
       <use xlink:href="#ArialMT-30" transform="translate(55.615234 0)"/>
      </g>
     </g>
    </g>
    <g id="text_54">
     <!-- False Negatives -->
     <g style="fill: #262626" transform="translate(585.309375 671.912812) rotate(-90) scale(0.12 -0.12)">
      <use xlink:href="#ArialMT-46"/>
      <use xlink:href="#ArialMT-61" transform="translate(61.083984 0)"/>
      <use xlink:href="#ArialMT-6c" transform="translate(116.699219 0)"/>
      <use xlink:href="#ArialMT-73" transform="translate(138.916016 0)"/>
      <use xlink:href="#ArialMT-65" transform="translate(188.916016 0)"/>
      <use xlink:href="#ArialMT-20" transform="translate(244.53125 0)"/>
      <use xlink:href="#ArialMT-4e" transform="translate(272.314453 0)"/>
      <use xlink:href="#ArialMT-65" transform="translate(344.53125 0)"/>
      <use xlink:href="#ArialMT-67" transform="translate(400.146484 0)"/>
      <use xlink:href="#ArialMT-61" transform="translate(455.761719 0)"/>
      <use xlink:href="#ArialMT-74" transform="translate(511.376953 0)"/>
      <use xlink:href="#ArialMT-69" transform="translate(539.160156 0)"/>
      <use xlink:href="#ArialMT-76" transform="translate(561.376953 0)"/>
      <use xlink:href="#ArialMT-65" transform="translate(611.376953 0)"/>
      <use xlink:href="#ArialMT-73" transform="translate(666.992188 0)"/>
     </g>
    </g>
   </g>
   <g id="patch_45">
    <path d="M 639.550562 810.395625 
L 743.476562 810.395625 
L 743.476562 658.134227 
L 639.550562 658.134227 
z
" clip-path="url(#p0eebf6d671)" style="fill: #3274a1; stroke: #ffffff; stroke-linejoin: miter"/>
   </g>
   <g id="patch_46">
    <path d="M 899.365562 810.395625 
L 1003.291562 810.395625 
L 1003.291562 537.502008 
L 899.365562 537.502008 
z
" clip-path="url(#p0eebf6d671)" style="fill: #3274a1; stroke: #ffffff; stroke-linejoin: miter"/>
   </g>
   <g id="patch_47">
    <path d="M 743.476562 810.395625 
L 847.402562 810.395625 
L 847.402562 565.821157 
L 743.476562 565.821157 
z
" clip-path="url(#p0eebf6d671)" style="fill: #e1812c; stroke: #ffffff; stroke-linejoin: miter"/>
   </g>
   <g id="patch_48">
    <path d="M 1003.291562 810.395625 
L 1107.217562 810.395625 
L 1107.217562 464.681339 
L 1003.291562 464.681339 
z
" clip-path="url(#p0eebf6d671)" style="fill: #e1812c; stroke: #ffffff; stroke-linejoin: miter"/>
   </g>
   <g id="patch_49">
    <path d="M 743.476562 810.395625 
L 743.476562 810.395625 
L 743.476562 810.395625 
L 743.476562 810.395625 
z
" clip-path="url(#p0eebf6d671)" style="fill: #3274a1; stroke: #ffffff; stroke-linejoin: miter"/>
   </g>
   <g id="patch_50">
    <path d="M 743.476562 810.395625 
L 743.476562 810.395625 
L 743.476562 810.395625 
L 743.476562 810.395625 
z
" clip-path="url(#p0eebf6d671)" style="fill: #e1812c; stroke: #ffffff; stroke-linejoin: miter"/>
   </g>
   <g id="line2d_39">
    <path clip-path="url(#p0eebf6d671)" style="fill: none; stroke: #424242; stroke-width: 2.25; stroke-linecap: round"/>
   </g>
   <g id="line2d_40">
    <path clip-path="url(#p0eebf6d671)" style="fill: none; stroke: #424242; stroke-width: 2.25; stroke-linecap: round"/>
   </g>
   <g id="line2d_41">
    <path clip-path="url(#p0eebf6d671)" style="fill: none; stroke: #424242; stroke-width: 2.25; stroke-linecap: round"/>
   </g>
   <g id="line2d_42">
    <path clip-path="url(#p0eebf6d671)" style="fill: none; stroke: #424242; stroke-width: 2.25; stroke-linecap: round"/>
   </g>
   <g id="patch_51">
    <path d="M 613.569062 810.395625 
L 613.569062 447.395625 
" style="fill: none; stroke: #cccccc; stroke-width: 1.25; stroke-linejoin: miter; stroke-linecap: square"/>
   </g>
   <g id="patch_52">
    <path d="M 1133.199062 810.395625 
L 1133.199062 447.395625 
" style="fill: none; stroke: #cccccc; stroke-width: 1.25; stroke-linejoin: miter; stroke-linecap: square"/>
   </g>
   <g id="patch_53">
    <path d="M 613.569062 810.395625 
L 1133.199062 810.395625 
" style="fill: none; stroke: #cccccc; stroke-width: 1.25; stroke-linejoin: miter; stroke-linecap: square"/>
   </g>
   <g id="patch_54">
    <path d="M 613.569062 447.395625 
L 1133.199062 447.395625 
" style="fill: none; stroke: #cccccc; stroke-width: 1.25; stroke-linejoin: miter; stroke-linecap: square"/>
   </g>
   <g id="text_55">
    <!-- Average False Negatives: Image Input vs No Image -->
    <g style="fill: #262626" transform="translate(736.095625 441.395625) scale(0.12 -0.12)">
     <use xlink:href="#ArialMT-41"/>
     <use xlink:href="#ArialMT-76" transform="translate(64.949219 0)"/>
     <use xlink:href="#ArialMT-65" transform="translate(114.949219 0)"/>
     <use xlink:href="#ArialMT-72" transform="translate(170.564453 0)"/>
     <use xlink:href="#ArialMT-61" transform="translate(203.865234 0)"/>
     <use xlink:href="#ArialMT-67" transform="translate(259.480469 0)"/>
     <use xlink:href="#ArialMT-65" transform="translate(315.095703 0)"/>
     <use xlink:href="#ArialMT-20" transform="translate(370.710938 0)"/>
     <use xlink:href="#ArialMT-46" transform="translate(398.494141 0)"/>
     <use xlink:href="#ArialMT-61" transform="translate(459.578125 0)"/>
     <use xlink:href="#ArialMT-6c" transform="translate(515.193359 0)"/>
     <use xlink:href="#ArialMT-73" transform="translate(537.410156 0)"/>
     <use xlink:href="#ArialMT-65" transform="translate(587.410156 0)"/>
     <use xlink:href="#ArialMT-20" transform="translate(643.025391 0)"/>
     <use xlink:href="#ArialMT-4e" transform="translate(670.808594 0)"/>
     <use xlink:href="#ArialMT-65" transform="translate(743.025391 0)"/>
     <use xlink:href="#ArialMT-67" transform="translate(798.640625 0)"/>
     <use xlink:href="#ArialMT-61" transform="translate(854.255859 0)"/>
     <use xlink:href="#ArialMT-74" transform="translate(909.871094 0)"/>
     <use xlink:href="#ArialMT-69" transform="translate(937.654297 0)"/>
     <use xlink:href="#ArialMT-76" transform="translate(959.871094 0)"/>
     <use xlink:href="#ArialMT-65" transform="translate(1009.871094 0)"/>
     <use xlink:href="#ArialMT-73" transform="translate(1065.486328 0)"/>
     <use xlink:href="#ArialMT-3a" transform="translate(1115.486328 0)"/>
     <use xlink:href="#ArialMT-20" transform="translate(1143.269531 0)"/>
     <use xlink:href="#ArialMT-49" transform="translate(1171.052734 0)"/>
     <use xlink:href="#ArialMT-6d" transform="translate(1198.835938 0)"/>
     <use xlink:href="#ArialMT-61" transform="translate(1282.136719 0)"/>
     <use xlink:href="#ArialMT-67" transform="translate(1337.751953 0)"/>
     <use xlink:href="#ArialMT-65" transform="translate(1393.367188 0)"/>
     <use xlink:href="#ArialMT-20" transform="translate(1448.982422 0)"/>
     <use xlink:href="#ArialMT-49" transform="translate(1476.765625 0)"/>
     <use xlink:href="#ArialMT-6e" transform="translate(1504.548828 0)"/>
     <use xlink:href="#ArialMT-70" transform="translate(1560.164062 0)"/>
     <use xlink:href="#ArialMT-75" transform="translate(1615.779297 0)"/>
     <use xlink:href="#ArialMT-74" transform="translate(1671.394531 0)"/>
     <use xlink:href="#ArialMT-20" transform="translate(1699.177734 0)"/>
     <use xlink:href="#ArialMT-76" transform="translate(1726.960938 0)"/>
     <use xlink:href="#ArialMT-73" transform="translate(1776.960938 0)"/>
     <use xlink:href="#ArialMT-20" transform="translate(1826.960938 0)"/>
     <use xlink:href="#ArialMT-4e" transform="translate(1854.744141 0)"/>
     <use xlink:href="#ArialMT-6f" transform="translate(1926.960938 0)"/>
     <use xlink:href="#ArialMT-20" transform="translate(1982.576172 0)"/>
     <use xlink:href="#ArialMT-49" transform="translate(2010.359375 0)"/>
     <use xlink:href="#ArialMT-6d" transform="translate(2038.142578 0)"/>
     <use xlink:href="#ArialMT-61" transform="translate(2121.443359 0)"/>
     <use xlink:href="#ArialMT-67" transform="translate(2177.058594 0)"/>
     <use xlink:href="#ArialMT-65" transform="translate(2232.673828 0)"/>
    </g>
   </g>
   <g id="legend_4">
    <g id="patch_55">
     <path d="M 621.269062 503.930313 
L 720.390312 503.930313 
Q 722.590312 503.930313 722.590312 501.730313 
L 722.590312 455.095625 
Q 722.590312 452.895625 720.390312 452.895625 
L 621.269062 452.895625 
Q 619.069062 452.895625 619.069062 455.095625 
L 619.069062 501.730313 
Q 619.069062 503.930313 621.269062 503.930313 
z
" style="fill: #ffffff; opacity: 0.8; stroke: #cccccc; stroke-linejoin: miter"/>
    </g>
    <g id="text_56">
     <!-- Has_Image_Input -->
     <g style="fill: #262626" transform="translate(623.469062 465.885) scale(0.12 -0.12)">
      <use xlink:href="#ArialMT-48"/>
      <use xlink:href="#ArialMT-61" transform="translate(72.216797 0)"/>
      <use xlink:href="#ArialMT-73" transform="translate(127.832031 0)"/>
      <use xlink:href="#ArialMT-5f" transform="translate(177.832031 0)"/>
      <use xlink:href="#ArialMT-49" transform="translate(233.447266 0)"/>
      <use xlink:href="#ArialMT-6d" transform="translate(261.230469 0)"/>
      <use xlink:href="#ArialMT-61" transform="translate(344.53125 0)"/>
      <use xlink:href="#ArialMT-67" transform="translate(400.146484 0)"/>
      <use xlink:href="#ArialMT-65" transform="translate(455.761719 0)"/>
      <use xlink:href="#ArialMT-5f" transform="translate(511.376953 0)"/>
      <use xlink:href="#ArialMT-49" transform="translate(566.992188 0)"/>
      <use xlink:href="#ArialMT-6e" transform="translate(594.775391 0)"/>
      <use xlink:href="#ArialMT-70" transform="translate(650.390625 0)"/>
      <use xlink:href="#ArialMT-75" transform="translate(706.005859 0)"/>
      <use xlink:href="#ArialMT-74" transform="translate(761.621094 0)"/>
     </g>
    </g>
    <g id="patch_56">
     <path d="M 641.981328 481.784219 
L 663.981328 481.784219 
L 663.981328 474.084219 
L 641.981328 474.084219 
z
" style="fill: #3274a1; stroke: #ffffff; stroke-linejoin: miter"/>
    </g>
    <g id="text_57">
     <!-- False -->
     <g style="fill: #262626" transform="translate(672.781328 481.784219) scale(0.11 -0.11)">
      <use xlink:href="#ArialMT-46"/>
      <use xlink:href="#ArialMT-61" transform="translate(61.083984 0)"/>
      <use xlink:href="#ArialMT-6c" transform="translate(116.699219 0)"/>
      <use xlink:href="#ArialMT-73" transform="translate(138.916016 0)"/>
      <use xlink:href="#ArialMT-65" transform="translate(188.916016 0)"/>
     </g>
    </g>
    <g id="patch_57">
     <path d="M 641.981328 497.344063 
L 663.981328 497.344063 
L 663.981328 489.644063 
L 641.981328 489.644063 
z
" style="fill: #e1812c; stroke: #ffffff; stroke-linejoin: miter"/>
    </g>
    <g id="text_58">
     <!-- True -->
     <g style="fill: #262626" transform="translate(672.781328 497.344063) scale(0.11 -0.11)">
      <use xlink:href="#ArialMT-54"/>
      <use xlink:href="#ArialMT-72" transform="translate(57.333984 0)"/>
      <use xlink:href="#ArialMT-75" transform="translate(90.634766 0)"/>
      <use xlink:href="#ArialMT-65" transform="translate(146.25 0)"/>
     </g>
    </g>
   </g>
  </g>
 </g>
 <defs>
  <clipPath id="p11fd8f5db1">
   <rect x="44.049063" y="21.935625" width="519.63" height="363"/>
  </clipPath>
  <clipPath id="p24945c3f01">
   <rect x="613.569062" y="21.935625" width="519.63" height="363"/>
  </clipPath>
  <clipPath id="p4dc42ed5c9">
   <rect x="44.049063" y="447.395625" width="519.63" height="363"/>
  </clipPath>
  <clipPath id="p0eebf6d671">
   <rect x="613.569062" y="447.395625" width="519.63" height="363"/>
  </clipPath>
 </defs>
</svg>
